<?xml version="1.0" encoding="UTF-8" standalone="no"?>
<svg
   xmlns:dc="http://purl.org/dc/elements/1.1/"
   xmlns:cc="http://creativecommons.org/ns#"
   xmlns:rdf="http://www.w3.org/1999/02/22-rdf-syntax-ns#"
   xmlns:svg="http://www.w3.org/2000/svg"
   xmlns="http://www.w3.org/2000/svg"
   version="1.1"
   width="373.97598"
   height="313.72006"
   id="svg2">
  <defs
     id="defs4">
    <clipPath
       id="clipPath4159">
      <path
         d="m 0,4 2380,0 0,166 L 0,170 0,4 z"
         id="path4161" />
    </clipPath>
    <clipPath
       id="clipPath4328">
      <path
         d="m 0,4 1280,0 0,166 L 0,170 0,4 z"
         id="path4330" />
    </clipPath>
    <clipPath
       id="clipPath4425">
      <path
         d="m 0,0.898438 600,0 0,159.102002 -600,0 L 0,0.898438 z"
         id="path4427" />
    </clipPath>
    <clipPath
       id="clipPath4485">
      <path
         d="m 0,0.898438 600,0 0,159.102002 -600,0 L 0,0.898438 z"
         id="path4487" />
    </clipPath>
  </defs>
  <metadata
     id="metadata7">
    <rdf:RDF>
      <cc:Work
         rdf:about="">
        <dc:format>image/svg+xml</dc:format>
        <dc:type
           rdf:resource="http://purl.org/dc/dcmitype/StillImage" />
        <dc:title></dc:title>
      </cc:Work>
    </rdf:RDF>
  </metadata>
  <g
     transform="translate(45.975995,-780.00835)"
     id="layer1">
    <g
       id="g4695">
      <g
         id="g4643">
        <path
           d="m 171.33333,105.83334 a 12.333333,12.833333 0 1 1 -24.66666,0 12.333333,12.833333 0 1 1 24.66666,0 z"
           transform="matrix(0.72972976,0,0,0.70129872,114.97297,793.14139)"
           id="path3959"
           style="fill:#000000;fill-opacity:1;stroke:none" />
        <path
           d="m 171.33333,105.83334 a 12.333333,12.833333 0 1 1 -24.66666,0 12.333333,12.833333 0 1 1 24.66666,0 z"
           transform="matrix(0.72972976,0,0,0.70129872,138.97297,793.14139)"
           id="path3961"
           style="fill:#000000;fill-opacity:1;stroke:none" />
        <path
           d="m 171.33333,105.83334 a 12.333333,12.833333 0 1 1 -24.66666,0 12.333333,12.833333 0 1 1 24.66666,0 z"
           transform="matrix(0.72972976,0,0,0.70129872,162.97297,793.14139)"
           id="path3963"
           style="fill:#000000;fill-opacity:1;stroke:none" />
        <path
           d="m 171.33333,105.83334 a 12.333333,12.833333 0 1 1 -24.66666,0 12.333333,12.833333 0 1 1 24.66666,0 z"
           transform="matrix(0.72972972,0,0,0.70129872,186.97297,793.14139)"
           id="path3965"
           style="fill:#000000;fill-opacity:1;stroke:none" />
        <path
           d="m 171.33333,105.83334 a 12.333333,12.833333 0 1 1 -24.66666,0 12.333333,12.833333 0 1 1 24.66666,0 z"
           transform="matrix(0.72972975,0,0,0.70129872,126.97297,772.35678)"
           id="path3967"
           style="fill:#000000;fill-opacity:1;stroke:none" />
        <path
           d="m 171.33333,105.83334 a 12.333333,12.833333 0 1 1 -24.66666,0 12.333333,12.833333 0 1 1 24.66666,0 z"
           transform="matrix(0.72972975,0,0,0.70129872,150.97297,772.35678)"
           id="path3969"
           style="fill:#000000;fill-opacity:1;stroke:none" />
        <path
           d="m 171.33333,105.83334 a 12.333333,12.833333 0 1 1 -24.66666,0 12.333333,12.833333 0 1 1 24.66666,0 z"
           transform="matrix(0.72972975,0,0,0.70129872,174.97297,772.35678)"
           id="path3971"
           style="fill:#000000;fill-opacity:1;stroke:none" />
        <path
           d="m 171.33333,105.83334 a 12.333333,12.833333 0 1 1 -24.66666,0 12.333333,12.833333 0 1 1 24.66666,0 z"
           transform="matrix(0.72972976,0,0,0.70129872,138.97297,751.57218)"
           id="path3973"
           style="fill:#000000;fill-opacity:1;stroke:none" />
        <path
           d="m 171.33333,105.83334 a 12.333333,12.833333 0 1 1 -24.66666,0 12.333333,12.833333 0 1 1 24.66666,0 z"
           transform="matrix(0.72972976,0,0,0.70129872,162.97297,751.57218)"
           id="path3975"
           style="fill:#000000;fill-opacity:1;stroke:none" />
        <path
           d="m 171.33333,105.83334 a 12.333333,12.833333 0 1 1 -24.66666,0 12.333333,12.833333 0 1 1 24.66666,0 z"
           transform="matrix(0.72972975,0,0,0.70129872,150.97297,730.78756)"
           id="path3977"
           style="fill:#000000;fill-opacity:1;stroke:none" />
      </g>
      <g
         id="g4635">
        <path
           d="m 171.33333,105.83334 a 12.333333,12.833333 0 1 1 -24.66666,0 12.333333,12.833333 0 1 1 24.66666,0 z"
           transform="matrix(0.72972975,0,0,0.70129872,18.97297,793.14139)"
           id="path3979"
           style="fill:#000000;fill-opacity:1;stroke:none" />
        <path
           d="m 171.33333,105.83334 a 12.333333,12.833333 0 1 1 -24.66666,0 12.333333,12.833333 0 1 1 24.66666,0 z"
           transform="matrix(0.72972975,0,0,0.70129872,42.97297,793.14139)"
           id="path3981"
           style="fill:#000000;fill-opacity:1;stroke:none" />
        <path
           d="m 171.33333,105.83334 a 12.333333,12.833333 0 1 1 -24.66666,0 12.333333,12.833333 0 1 1 24.66666,0 z"
           transform="matrix(0.72972975,0,0,0.70129872,66.97297,793.14139)"
           id="path3983"
           style="fill:#000000;fill-opacity:1;stroke:none" />
        <path
           d="m 171.33333,105.83334 a 12.333333,12.833333 0 1 1 -24.66666,0 12.333333,12.833333 0 1 1 24.66666,0 z"
           transform="matrix(0.72972976,0,0,0.70129872,30.97297,772.35679)"
           id="path3985"
           style="fill:#000000;fill-opacity:1;stroke:none" />
        <path
           d="m 171.33333,105.83334 a 12.333333,12.833333 0 1 1 -24.66666,0 12.333333,12.833333 0 1 1 24.66666,0 z"
           transform="matrix(0.72972976,0,0,0.70129872,54.97297,772.35679)"
           id="path3987"
           style="fill:#000000;fill-opacity:1;stroke:none" />
        <path
           d="m 171.33333,105.83334 a 12.333333,12.833333 0 1 1 -24.66666,0 12.333333,12.833333 0 1 1 24.66666,0 z"
           transform="matrix(0.72972975,0,0,0.70129872,42.97297,751.57218)"
           id="path3989"
           style="fill:#000000;fill-opacity:1;stroke:none" />
      </g>
      <g
         id="g4630">
        <path
           d="m 171.33333,105.83334 a 12.333333,12.833333 0 1 1 -24.66666,0 12.333333,12.833333 0 1 1 24.66666,0 z"
           transform="matrix(0.72972976,0,0,0.70129872,-53.02703,793.14139)"
           id="path3991"
           style="fill:#000000;fill-opacity:1;stroke:none" />
        <path
           d="m 171.33333,105.83334 a 12.333333,12.833333 0 1 1 -24.66666,0 12.333333,12.833333 0 1 1 24.66666,0 z"
           transform="matrix(0.72972976,0,0,0.70129872,-29.027033,793.14139)"
           id="path3993"
           style="fill:#000000;fill-opacity:1;stroke:none" />
        <path
           d="m 171.33333,105.83334 a 12.333333,12.833333 0 1 1 -24.66666,0 12.333333,12.833333 0 1 1 24.66666,0 z"
           transform="matrix(0.72972975,0,0,0.70129872,-41.027033,772.35678)"
           id="path3995"
           style="fill:#000000;fill-opacity:1;stroke:none" />
      </g>
      <path
         d="m 171.33333,105.83334 a 12.333333,12.833333 0 1 1 -24.66666,0 12.333333,12.833333 0 1 1 24.66666,0 z"
         transform="matrix(0.72972975,0,0,0.70129872,-117.02703,793.14139)"
         id="path3997"
         style="fill:#000000;fill-opacity:1;stroke:none" />
      <g
         transform="translate(2.4329953,-6)"
         id="g4624">
        <path
           d="m -23.405099,894.48087 c 0.1587,-0.6275 0.2461,-0.75975 0.516125,-0.82863 0.201163,-0.045 0.9375,-0.045 1.408688,-0.045 2.256337,0 3.261212,0.0899 3.261212,1.8335 0,0.334 -0.08738,1.20763 -0.17725,1.78763 -0.02388,0.0904 -0.06887,0.3575 -0.06887,0.42625 0,0.13287 0.06887,0.28912 0.270125,0.28912 0.246,0 0.2915,-0.17775 0.333875,-0.51412 l 0.603625,-3.88875 c 0.02388,-0.0899 0.04488,-0.3125 0.04488,-0.37838 0,-0.24662 -0.222125,-0.24662 -0.6035,-0.24662 l -12.403837,0 c -0.5376,0 -0.558588,0.0215 -0.714838,0.44775 l -1.341314,3.93362 c -0.02148,0.0425 -0.132812,0.35738 -0.132812,0.40238 0,0.13275 0.111329,0.24412 0.267579,0.24412 0.22266,0 0.246585,-0.11137 0.381347,-0.46875 1.205075,-3.46537 1.7876,-3.86775 5.096188,-3.86775 l 0.8711,0 c 0.625,0 0.625,0.0899 0.625,0.27013 0,0.13225 -0.06593,0.40225 -0.0874,0.46875 l -2.9961,11.93501 c -0.201175,0.82617 -0.267575,1.07226 -2.66015,1.07226 -0.804688,0 -0.9375,0 -0.9375,0.42628 0,0.26757 0.246575,0.26757 0.3789,0.26757 0.603512,0 1.229987,-0.0449 1.8335,-0.0449 0.625,0 1.273925,-0.0215 1.898925,-0.0215 0.627437,0 1.252437,0.0215 1.854975,0.0215 0.648925,0 1.31885,0.0449 1.944825,0.0449 0.222662,0 0.492675,0 0.492675,-0.44726 0,-0.24659 -0.180175,-0.24659 -0.761225,-0.24659 -0.5586,0 -0.847663,0 -1.430175,-0.0449 -0.648438,-0.0664 -0.826175,-0.13233 -0.826175,-0.48974 0,-0.0239 0,-0.13526 0.0874,-0.47169 l 2.972662,-11.86717"
           id="path4163"
           style="fill:#000000;fill-opacity:1;fill-rule:nonzero;stroke:none" />
        <path
           d="m -14.575074,901.45984 c 0,-0.42235 -0.03125,-0.43747 -0.471125,-0.43747 -1.0025,0.9863 -2.42775,1.00241 -3.070375,1.00241 l 0,0.56494 c 0.378,0 1.41025,0 2.2715,-0.43994 l 0,7.98877 c 0,0.51758 0,0.72119 -1.566375,0.72119 l -0.596125,0 0,0.56494 c 0.283625,-0.0161 2.208875,-0.0625 2.7885,-0.0625 0.486375,0 2.459,0.0464 2.80525,0.0625 l 0,-0.56494 -0.59625,0 c -1.566375,0 -1.566375,-0.20361 -1.566375,-0.72119 l 0,-8.67773"
           id="path4165"
           style="fill:#000000;fill-opacity:1;fill-rule:nonzero;stroke:none" />
        <path
           d="m 9.7825,900.73862 c 0.334,0 0.76025,0 0.76025,-0.44775 0,-0.44725 -0.42625,-0.44725 -0.73875,-0.44725 l -13.38925,0 c -0.3125,0 -0.73575,0 -0.73575,0.44725 0,0.44775 0.42325,0.44775 0.75975,0.44775 l 13.34375,0 z m 0.0225,4.33597 c 0.3125,0 0.73875,0 0.73875,-0.44727 0,-0.44775 -0.42625,-0.44775 -0.75975,-0.44775 l -13.34375,0 c -0.3365,0 -0.76025,0 -0.76025,0.44775 0,0.44727 0.42375,0.44727 0.73625,0.44727 l 13.38875,0"
           id="path4167"
           style="fill:#000000;fill-opacity:1;fill-rule:nonzero;stroke:none" />
        <path
           d="m 22.747625,893.74212 c 0,-0.53713 0,-0.57963 -0.51375,-0.57963 -1.38475,1.42963 -3.351,1.42963 -4.068875,1.42963 l 0,0.69387 c 0.44775,0 1.767625,0 2.93025,-0.5825 l 0,11.57764 c 0,0.80469 -0.06887,1.07226 -2.080125,1.07226 l -0.714875,0 0,0.69385 c 0.78375,-0.0664 2.726125,-0.0664 3.621125,-0.0664 0.895,0 2.837375,0 3.621625,0.0664 l 0,-0.69385 -0.715375,0 c -2.01125,0 -2.08,-0.24609 -2.08,-1.07226 l 0,-12.53901"
           id="path4169"
           style="fill:#000000;fill-opacity:1;fill-rule:nonzero;stroke:none" />
      </g>
      <g
         transform="translate(2.6209953,-6)"
         id="g4618">
        <path
           d="m 52.044875,894.48087 c 0.158625,-0.6275 0.246125,-0.75975 0.516125,-0.82863 0.201125,-0.045 0.9375,-0.045 1.408625,-0.045 2.256375,0 3.26125,0.0899 3.26125,1.8335 0,0.334 -0.08737,1.20763 -0.17725,1.78763 -0.02387,0.0904 -0.06887,0.3575 -0.06887,0.42625 0,0.13287 0.06887,0.28912 0.270125,0.28912 0.246,0 0.2915,-0.17775 0.333875,-0.51412 l 0.603625,-3.88875 c 0.02388,-0.0899 0.04488,-0.3125 0.04488,-0.37838 0,-0.24662 -0.222125,-0.24662 -0.6035,-0.24662 l -12.403875,0 c -0.5375,0 -0.5585,0.0215 -0.71475,0.44775 l -1.341375,3.93362 c -0.0215,0.0425 -0.13275,0.35738 -0.13275,0.40238 0,0.13275 0.11125,0.24412 0.2675,0.24412 0.222625,0 0.246625,-0.11137 0.381375,-0.46875 1.205125,-3.46537 1.787625,-3.86775 5.09625,-3.86775 l 0.871,0 c 0.625,0 0.625,0.0899 0.625,0.27013 0,0.13225 -0.06587,0.40225 -0.08738,0.46875 l -2.996125,11.93501 c -0.201125,0.82617 -0.2675,1.07226 -2.660125,1.07226 -0.804625,0 -0.9375,0 -0.9375,0.42628 0,0.26757 0.246625,0.26757 0.378875,0.26757 0.6035,0 1.23,-0.0449 1.8335,-0.0449 0.625,0 1.274,-0.0215 1.899,-0.0215 0.627375,0 1.252375,0.0215 1.855,0.0215 0.648875,0 1.31875,0.0449 1.94475,0.0449 0.222625,0 0.49275,0 0.49275,-0.44726 0,-0.24659 -0.18025,-0.24659 -0.76125,-0.24659 -0.558625,0 -0.84775,0 -1.43025,-0.0449 -0.648375,-0.0664 -0.826125,-0.13233 -0.826125,-0.48974 0,-0.0239 0,-0.13526 0.08737,-0.47169 l 2.972625,-11.86717"
           id="path4173"
           style="fill:#000000;fill-opacity:1;fill-rule:nonzero;stroke:none" />
        <path
           d="m 63.5375,908.57117 -0.53125,0 c -0.04638,0.34619 -0.205,1.27002 -0.408625,1.42627 -0.125,0.0937 -1.3325,0.0937 -1.55125,0.0937 l -2.882875,0 c 1.645,-1.45752 2.193875,-1.89502 3.132875,-2.63135 1.159625,-0.92382 2.23975,-1.89649 2.23975,-3.38525 0,-1.89502 -1.66025,-3.05222 -3.663625,-3.05222 -1.943875,0 -3.26025,1.3613 -3.26025,2.80222 0,0.79883 0.673875,0.87744 0.830125,0.87744 0.377375,0 0.83,-0.26611 0.83,-0.82959 0,-0.28125 -0.108875,-0.83008 -0.92375,-0.83008 0.48625,-1.11133 1.55125,-1.45752 2.2875,-1.45752 1.5665,0 2.381375,1.22216 2.381375,2.48975 0,1.36376 -0.971125,2.4453 -1.472625,3.0078 L 56.77,910.81092 c -0.15625,0.14013 -0.15625,0.17138 -0.15625,0.61132 l 6.455,0 0.46875,-2.85107"
           id="path4175"
           style="fill:#000000;fill-opacity:1;fill-rule:nonzero;stroke:none" />
        <path
           d="m 85.2325,900.73862 c 0.334,0 0.76025,0 0.76025,-0.44775 0,-0.44725 -0.42625,-0.44725 -0.73875,-0.44725 l -13.38925,0 c -0.3125,0 -0.73575,0 -0.73575,0.44725 0,0.44775 0.42325,0.44775 0.75975,0.44775 l 13.34375,0 z m 0.0225,4.33597 c 0.3125,0 0.73875,0 0.73875,-0.44727 0,-0.44775 -0.42625,-0.44775 -0.75975,-0.44775 l -13.34375,0 c -0.3365,0 -0.76025,0 -0.76025,0.44775 0,0.44727 0.42375,0.44727 0.73625,0.44727 l 13.38875,0"
           id="path4177"
           style="fill:#000000;fill-opacity:1;fill-rule:nonzero;stroke:none" />
        <path
           d="m 97.984498,900.17962 c 1.8325,-0.60363 3.128752,-2.1675 3.128752,-3.93363 0,-1.8335 -1.966253,-3.0835 -4.113752,-3.0835 -2.257498,0 -3.954998,1.33988 -3.954998,3.0385 0,0.73888 0.49,1.16263 1.13875,1.16263 0.69375,0 1.141248,-0.49263 1.141248,-1.14163 0,-1.11712 -1.051248,-1.11712 -1.386248,-1.11712 0.69375,-1.09625 2.167498,-1.38525 2.972498,-1.38525 0.9175,0 2.14625,0.49025 2.14625,2.50237 0,0.27013 -0.045,1.5655 -0.625,2.54888 -0.67125,1.07275 -1.43125,1.14012 -1.99,1.16262 -0.18,0.0215 -0.715,0.0664 -0.87125,0.0664 -0.18,0.0235 -0.33625,0.0449 -0.33625,0.27 0,0.24362 0.15625,0.24362 0.5375,0.24362 l 0.9825,0 c 1.83375,0 2.66,1.52105 2.66,3.71149 0,3.03857 -1.5425,3.6875 -2.525,3.6875 -0.961251,0 -2.636248,-0.37891 -3.419998,-1.69776 0.78375,0.11133 1.474998,-0.38134 1.474998,-1.22998 0,-0.80517 -0.603748,-1.25244 -1.252498,-1.25244 -0.535,0 -1.25,0.31494 -1.25,1.29639 0,2.03369 2.07875,3.50976 4.513747,3.50976 2.72625,0 4.761253,-2.03516 4.761253,-4.31493 0,-1.83253 -1.40875,-3.57615 -3.732502,-4.0449"
           id="path4179"
           style="fill:#000000;fill-opacity:1;fill-rule:nonzero;stroke:none" />
      </g>
      <g
         transform="translate(2.4719753,-6)"
         id="g4612">
        <path
           d="m 136.19475,894.48087 c 0.15875,-0.6275 0.24625,-0.75975 0.51625,-0.82863 0.20125,-0.045 0.9375,-0.045 1.40875,-0.045 2.25625,0 3.26125,0.0899 3.26125,1.8335 0,0.334 -0.0875,1.20763 -0.1775,1.78763 -0.0237,0.0904 -0.0687,0.3575 -0.0687,0.42625 0,0.13287 0.0687,0.28912 0.27,0.28912 0.24625,0 0.29125,-0.17775 0.33375,-0.51412 l 0.60375,-3.88875 c 0.0238,-0.0899 0.045,-0.3125 0.045,-0.37838 0,-0.24662 -0.2225,-0.24662 -0.60375,-0.24662 l -12.40375,0 c -0.5375,0 -0.55875,0.0215 -0.715,0.44775 l -1.34125,3.93362 c -0.0212,0.0425 -0.1325,0.35738 -0.1325,0.40238 0,0.13275 0.11125,0.24412 0.2675,0.24412 0.2225,0 0.24625,-0.11137 0.38125,-0.46875 1.205,-3.46537 1.7875,-3.86775 5.09625,-3.86775 l 0.87125,0 c 0.625,0 0.625,0.0899 0.625,0.27013 0,0.13225 -0.0662,0.40225 -0.0875,0.46875 l -2.99625,11.93501 c -0.20125,0.82617 -0.2675,1.07226 -2.66,1.07226 -0.805,0 -0.9375,0 -0.9375,0.42628 0,0.26757 0.24625,0.26757 0.37875,0.26757 0.60375,0 1.23,-0.0449 1.83375,-0.0449 0.625,0 1.27375,-0.0215 1.89875,-0.0215 0.6275,0 1.2525,0.0215 1.855,0.0215 0.64875,0 1.31875,0.0449 1.945,0.0449 0.2225,0 0.4925,0 0.4925,-0.44726 0,-0.24659 -0.18,-0.24659 -0.76125,-0.24659 -0.55875,0 -0.8475,0 -1.43,-0.0449 -0.64875,-0.0664 -0.82625,-0.13233 -0.82625,-0.48974 0,-0.0239 0,-0.13526 0.0875,-0.47169 l 2.9725,-11.86717"
           id="path4183"
           style="fill:#000000;fill-opacity:1;fill-rule:nonzero;stroke:none" />
        <path
           d="m 143.92975,906.18982 c 1.22125,0 2.0975,0.8462 2.0975,2.521 0,1.94385 -1.1275,2.52392 -2.035,2.52392 -0.6275,0 -2.00625,-0.17236 -2.66375,-1.09765 0.73625,-0.0312 0.90875,-0.54737 0.90875,-0.87745 0,-0.5 -0.375,-0.86132 -0.86125,-0.86132 -0.4375,0 -0.8775,0.26513 -0.8775,0.90868 0,1.47267 1.62875,2.42774 3.525,2.42774 2.17625,0 3.68,-1.45507 3.68,-3.02392 0,-1.22119 -1.0025,-2.44336 -2.725,-2.80225 1.645,-0.59619 2.24,-1.77002 2.24,-2.72657 0,-1.23583 -1.42625,-2.15963 -3.16375,-2.15963 -1.74,0 -3.07,0.84616 -3.07,2.09713 0,0.53419 0.34375,0.83009 0.815,0.83009 0.485,0 0.79875,-0.35987 0.79875,-0.79884 0,-0.45361 -0.315,-0.78368 -0.79875,-0.81493 0.5475,-0.68994 1.62875,-0.86084 2.20875,-0.86084 0.705,0 1.69125,0.34619 1.69125,1.70702 0,0.65919 -0.21875,1.37892 -0.6275,1.86524 -0.5175,0.59619 -0.955,0.62744 -1.73875,0.67383 -0.3925,0.0312 -0.42375,0.0312 -0.5025,0.0464 -0.0312,0 -0.15625,0.0312 -0.15625,0.20214 0,0.21875 0.14125,0.21875 0.40625,0.21875 l 0.8475,0"
           id="path4185"
           style="fill:#000000;fill-opacity:1;fill-rule:nonzero;stroke:none" />
        <path
           d="m 169.38175,900.73862 c 0.33375,0 0.76,0 0.76,-0.44775 0,-0.44725 -0.42625,-0.44725 -0.73875,-0.44725 l -13.38875,0 c -0.3125,0 -0.73625,0 -0.73625,0.44725 0,0.44775 0.42375,0.44775 0.76,0.44775 l 13.34375,0 z m 0.0225,4.33597 c 0.3125,0 0.73875,0 0.73875,-0.44727 0,-0.44775 -0.42625,-0.44775 -0.76,-0.44775 l -13.34375,0 c -0.33625,0 -0.76,0 -0.76,0.44775 0,0.44727 0.42375,0.44727 0.73625,0.44727 l 13.38875,0"
           id="path4187"
           style="fill:#000000;fill-opacity:1;fill-rule:nonzero;stroke:none" />
        <path
           d="m 178.60375,900.71474 0,-0.53512 c 0,-5.65388 2.77125,-6.4585 3.91,-6.4585 0.5375,0 1.475,0.13225 1.96625,0.8925 -0.33375,0 -1.22875,0 -1.22875,1.00587 0,0.69388 0.535,1.02888 1.0275,1.02888 0.3575,0 1.02875,-0.20125 1.02875,-1.07375 0,-1.33988 -0.98375,-2.41213 -2.84,-2.41213 -2.85875,0 -5.8775,2.88225 -5.8775,7.82225 0,5.96631 2.59125,7.55518 4.67,7.55518 2.4825,0 4.605,-2.10157 4.605,-5.05274 0,-2.83744 -1.99,-4.98244 -4.47125,-4.98244 -1.52,0 -2.3475,1.13875 -2.7925,2.2115 l 0.002,-10e-4 z m 2.65875,7.19774 c -1.40875,0 -2.0775,-1.34034 -2.2125,-1.67627 -0.4025,-1.05127 -0.4025,-2.83789 -0.4025,-3.24024 0,-1.74365 0.71625,-3.97848 2.72875,-3.97848 0.3575,0 1.385,0 2.07875,1.38475 0.4025,0.82762 0.4025,1.96629 0.4025,3.06248 0,1.07276 0,2.19141 -0.38125,2.9961 -0.67,1.34032 -1.6975,1.45166 -2.2125,1.45166"
           id="path4189"
           style="fill:#000000;fill-opacity:1;fill-rule:nonzero;stroke:none" />
      </g>
      <g
         transform="translate(2.1869734,-6)"
         id="g4605">
        <path
           d="m 238.81975,894.48087 c 0.15875,-0.6275 0.24625,-0.75975 0.51625,-0.82863 0.20125,-0.045 0.9375,-0.045 1.40875,-0.045 2.25625,0 3.26125,0.0899 3.26125,1.8335 0,0.334 -0.0875,1.20763 -0.1775,1.78763 -0.0237,0.0904 -0.0687,0.3575 -0.0687,0.42625 0,0.13287 0.0687,0.28912 0.27,0.28912 0.24625,0 0.29125,-0.17775 0.33375,-0.51412 l 0.60375,-3.88875 c 0.0238,-0.0899 0.045,-0.3125 0.045,-0.37838 0,-0.24662 -0.2225,-0.24662 -0.60375,-0.24662 l -12.40375,0 c -0.5375,0 -0.55875,0.0215 -0.715,0.44775 l -1.34125,3.93362 c -0.0213,0.0425 -0.1325,0.35738 -0.1325,0.40238 0,0.13275 0.11125,0.24412 0.2675,0.24412 0.2225,0 0.24625,-0.11137 0.38125,-0.46875 1.205,-3.46537 1.7875,-3.86775 5.09625,-3.86775 l 0.87125,0 c 0.625,0 0.625,0.0899 0.625,0.27013 0,0.13225 -0.0662,0.40225 -0.0875,0.46875 l -2.99625,11.93501 c -0.20125,0.82617 -0.2675,1.07226 -2.66,1.07226 -0.805,0 -0.9375,0 -0.9375,0.42628 0,0.26757 0.24625,0.26757 0.37875,0.26757 0.60375,0 1.23,-0.0449 1.83375,-0.0449 0.625,0 1.27375,-0.0215 1.89875,-0.0215 0.6275,0 1.2525,0.0215 1.855,0.0215 0.64875,0 1.31875,0.0449 1.945,0.0449 0.2225,0 0.4925,0 0.4925,-0.44726 0,-0.24659 -0.18,-0.24659 -0.76125,-0.24659 -0.55875,0 -0.8475,0 -1.43,-0.0449 -0.64875,-0.0664 -0.82625,-0.13233 -0.82625,-0.48974 0,-0.0239 0,-0.13526 0.0875,-0.47169 l 2.9725,-11.86717"
           id="path4193"
           style="fill:#000000;fill-opacity:1;fill-rule:nonzero;stroke:none" />
        <path
           d="m 250.68975,908.85339 0,-0.56494 -1.74,0 0,-6.98632 c 0,-0.33014 0,-0.43989 -0.34375,-0.43989 -0.1875,0 -0.25,0 -0.40625,0.22113 l -5.185,7.20508 0,0.56494 4.605,0 0,1.2837 c 0,0.53369 0,0.72119 -1.27,0.72119 l -0.42125,0 0,0.56543 c 0.78375,-0.0312 1.785,-0.0625 2.35,-0.0625 0.57875,0 1.5825,0.0312 2.365,0.0625 l 0,-0.56543 -0.42375,0 c -1.27,0 -1.27,-0.1875 -1.27,-0.72119 l 0,-1.2837 1.74,0 z m -2.96125,-6.29882 0,5.73388 -4.135,0 4.135,-5.73486"
           id="path4195"
           style="fill:#000000;fill-opacity:1;fill-rule:nonzero;stroke:none" />
        <path
           d="m 272.00675,900.73862 c 0.33375,0 0.76,0 0.76,-0.44775 0,-0.44725 -0.42625,-0.44725 -0.73875,-0.44725 l -13.38875,0 c -0.3125,0 -0.73625,0 -0.73625,0.44725 0,0.44775 0.42375,0.44775 0.76,0.44775 l 13.34375,0 z m 0.0225,4.33597 c 0.3125,0 0.73875,0 0.73875,-0.44727 0,-0.44775 -0.42625,-0.44775 -0.76,-0.44775 l -13.34375,0 c -0.33625,0 -0.76,0 -0.76,0.44775 0,0.44727 0.42375,0.44727 0.73625,0.44727 l 13.38875,0"
           id="path4197"
           style="fill:#000000;fill-opacity:1;fill-rule:nonzero;stroke:none" />
        <path
           d="m 284.9725,893.74212 c 0,-0.53713 0,-0.57963 -0.51375,-0.57963 -1.385,1.42963 -3.35125,1.42963 -4.06875,1.42963 l 0,0.69387 c 0.4475,0 1.7675,0 2.93,-0.5825 l 0,11.57764 c 0,0.80469 -0.0687,1.07226 -2.08,1.07226 l -0.715,0 0,0.69385 c 0.78375,-0.0664 2.72625,-0.0664 3.62125,-0.0664 0.895,0 2.8375,0 3.62125,0.0664 l 0,-0.69385 -0.715,0 c -2.01125,0 -2.08,-0.24609 -2.08,-1.07226 l 0,-12.53901"
           id="path4199"
           style="fill:#000000;fill-opacity:1;fill-rule:nonzero;stroke:none" />
        <path
           d="m 299.80875,900.89487 c 0,-1.78763 -0.11125,-3.57613 -0.895,-5.23 -1.0275,-2.145 -2.85875,-2.50238 -3.79875,-2.50238 -1.34125,0 -2.9725,0.57963 -3.88875,2.65863 -0.715,1.5425 -0.8275,3.28712 -0.8275,5.07375 0,1.6763 0.09,3.68752 1.00625,5.38626 0.96125,1.81006 2.59375,2.25732 3.6875,2.25732 1.2075,0 2.90625,-0.47118 3.89125,-2.59375 0.715,-1.54101 0.82625,-3.28516 0.82625,-5.05121 l -10e-4,10e-4 z m -4.71625,7.15237 c -0.87125,0 -2.19,-0.5586 -2.59125,-2.70507 -0.24625,-1.33985 -0.24625,-3.396 -0.24625,-4.7148 0,-1.43125 0,-2.90625 0.18,-4.11388 0.42375,-2.66012 2.1,-2.86125 2.65875,-2.86125 0.73875,0 2.2125,0.40238 2.63875,2.61525 0.2225,1.25238 0.2225,2.95113 0.2225,4.35838 0,1.67626 0,3.1953 -0.24625,4.62742 -0.33375,2.12256 -1.60875,2.79249 -2.615,2.79249"
           id="path4201"
           style="fill:#000000;fill-opacity:1;fill-rule:nonzero;stroke:none" />
      </g>
    </g>
    <g
       transform="translate(-8.9879975,-4)"
       id="g4741">
      <g
         transform="translate(3,-8.3923)"
         id="g4655">
        <path
           d="m 171.33333,105.83334 a 12.333333,12.833333 0 1 1 -24.66666,0 12.333333,12.833333 0 1 1 24.66666,0 z"
           transform="matrix(0.72972976,0,0,0.70129872,42.972967,977.53369)"
           id="path3865"
           style="fill:#000000;fill-opacity:1;stroke:none" />
        <path
           d="m 171.33333,105.83334 a 12.333333,12.833333 0 1 1 -24.66666,0 12.333333,12.833333 0 1 1 24.66666,0 z"
           transform="matrix(0.72972976,0,0,0.70129872,66.972967,977.53369)"
           id="path3867"
           style="fill:#000000;fill-opacity:1;stroke:none" />
        <path
           d="m 171.33333,105.83334 a 12.333333,12.833333 0 1 1 -24.66666,0 12.333333,12.833333 0 1 1 24.66666,0 z"
           transform="matrix(0.72972976,0,0,0.70129872,90.972967,977.53369)"
           id="path3869"
           style="fill:#000000;fill-opacity:1;stroke:none" />
        <path
           d="m 171.33333,105.83334 a 12.333333,12.833333 0 1 1 -24.66666,0 12.333333,12.833333 0 1 1 24.66666,0 z"
           transform="matrix(0.72972972,0,0,0.70129872,114.97297,977.53369)"
           id="path3871"
           style="fill:#000000;fill-opacity:1;stroke:none" />
        <path
           d="m 171.33333,105.83334 a 12.333333,12.833333 0 1 1 -24.66666,0 12.333333,12.833333 0 1 1 24.66666,0 z"
           transform="matrix(0.72972972,0,0,0.70129872,138.97297,977.53369)"
           id="path3873"
           style="fill:#000000;fill-opacity:1;stroke:none" />
        <path
           d="m 171.33333,105.83334 a 12.333333,12.833333 0 1 1 -24.66666,0 12.333333,12.833333 0 1 1 24.66666,0 z"
           transform="matrix(0.72972972,0,0,0.70129872,162.97297,977.53369)"
           id="path3875"
           style="fill:#000000;fill-opacity:1;stroke:none" />
        <path
           d="m 171.33333,105.83334 a 12.333333,12.833333 0 1 1 -24.66666,0 12.333333,12.833333 0 1 1 24.66666,0 z"
           transform="matrix(0.72972975,0,0,0.70129872,54.972967,956.74908)"
           id="path3877"
           style="fill:#000000;fill-opacity:1;stroke:none" />
        <path
           d="m 171.33333,105.83334 a 12.333333,12.833333 0 1 1 -24.66666,0 12.333333,12.833333 0 1 1 24.66666,0 z"
           transform="matrix(0.72972975,0,0,0.70129872,78.972967,956.74908)"
           id="path3879"
           style="fill:#000000;fill-opacity:1;stroke:none" />
        <path
           d="m 171.33333,105.83334 a 12.333333,12.833333 0 1 1 -24.66666,0 12.333333,12.833333 0 1 1 24.66666,0 z"
           transform="matrix(0.72972975,0,0,0.70129872,102.97297,956.74908)"
           id="path3881"
           style="fill:#000000;fill-opacity:1;stroke:none" />
        <path
           d="m 171.33333,105.83334 a 12.333333,12.833333 0 1 1 -24.66666,0 12.333333,12.833333 0 1 1 24.66666,0 z"
           transform="matrix(0.7297297,0,0,0.70129872,126.97297,956.74908)"
           id="path3883"
           style="fill:#000000;fill-opacity:1;stroke:none" />
        <path
           d="m 171.33333,105.83334 a 12.333333,12.833333 0 1 1 -24.66666,0 12.333333,12.833333 0 1 1 24.66666,0 z"
           transform="matrix(0.7297297,0,0,0.70129872,150.97297,956.74908)"
           id="path3885"
           style="fill:#000000;fill-opacity:1;stroke:none" />
        <path
           d="m 171.33333,105.83334 a 12.333333,12.833333 0 1 1 -24.66666,0 12.333333,12.833333 0 1 1 24.66666,0 z"
           transform="matrix(0.72972976,0,0,0.70129872,66.972967,935.96448)"
           id="path3887"
           style="fill:#000000;fill-opacity:1;stroke:none" />
        <path
           d="m 171.33333,105.83334 a 12.333333,12.833333 0 1 1 -24.66666,0 12.333333,12.833333 0 1 1 24.66666,0 z"
           transform="matrix(0.72972976,0,0,0.70129872,90.972967,935.96448)"
           id="path3889"
           style="fill:#000000;fill-opacity:1;stroke:none" />
        <path
           d="m 171.33333,105.83334 a 12.333333,12.833333 0 1 1 -24.66666,0 12.333333,12.833333 0 1 1 24.66666,0 z"
           transform="matrix(0.72972976,0,0,0.70129872,114.97297,935.96448)"
           id="path3891"
           style="fill:#000000;fill-opacity:1;stroke:none" />
        <path
           d="m 171.33333,105.83334 a 12.333333,12.833333 0 1 1 -24.66666,0 12.333333,12.833333 0 1 1 24.66666,0 z"
           transform="matrix(0.72972972,0,0,0.70129872,138.97297,935.96448)"
           id="path3893"
           style="fill:#000000;fill-opacity:1;stroke:none" />
        <path
           d="m 171.33333,105.83334 a 12.333333,12.833333 0 1 1 -24.66666,0 12.333333,12.833333 0 1 1 24.66666,0 z"
           transform="matrix(0.72972975,0,0,0.70129872,78.972967,915.17986)"
           id="path3895"
           style="fill:#000000;fill-opacity:1;stroke:none" />
        <path
           d="m 171.33333,105.83334 a 12.333333,12.833333 0 1 1 -24.66666,0 12.333333,12.833333 0 1 1 24.66666,0 z"
           transform="matrix(0.72972975,0,0,0.70129872,102.97297,915.17986)"
           id="path3897"
           style="fill:#000000;fill-opacity:1;stroke:none" />
        <path
           d="m 171.33333,105.83334 a 12.333333,12.833333 0 1 1 -24.66666,0 12.333333,12.833333 0 1 1 24.66666,0 z"
           transform="matrix(0.72972975,0,0,0.70129872,126.97297,915.17986)"
           id="path3899"
           style="fill:#000000;fill-opacity:1;stroke:none" />
        <path
           d="m 171.33333,105.83334 a 12.333333,12.833333 0 1 1 -24.66666,0 12.333333,12.833333 0 1 1 24.66666,0 z"
           transform="matrix(0.72972976,0,0,0.70129872,90.972967,894.39526)"
           id="path3901"
           style="fill:#000000;fill-opacity:1;stroke:none" />
        <path
           d="m 171.33333,105.83334 a 12.333333,12.833333 0 1 1 -24.66666,0 12.333333,12.833333 0 1 1 24.66666,0 z"
           transform="matrix(0.72972976,0,0,0.70129872,114.97297,894.39526)"
           id="path3903"
           style="fill:#000000;fill-opacity:1;stroke:none" />
        <path
           d="m 171.33333,105.83334 a 12.333333,12.833333 0 1 1 -24.66666,0 12.333333,12.833333 0 1 1 24.66666,0 z"
           transform="matrix(0.72972975,0,0,0.70129872,102.97297,873.61065)"
           id="path3905"
           style="fill:#000000;fill-opacity:1;stroke:none" />
      </g>
      <g
         transform="translate(3,-8.3923)"
         id="g4678">
        <path
           d="m 171.33333,105.83334 a 12.333333,12.833333 0 1 1 -24.66666,0 12.333333,12.833333 0 1 1 24.66666,0 z"
           transform="matrix(0.72972975,0,0,0.70129872,-101.02703,977.53369)"
           id="path3919"
           style="fill:#000000;fill-opacity:1;stroke:none" />
        <path
           d="m 171.33333,105.83334 a 12.333333,12.833333 0 1 1 -24.66666,0 12.333333,12.833333 0 1 1 24.66666,0 z"
           transform="matrix(0.72972975,0,0,0.70129872,-77.02703,977.53369)"
           id="path3921"
           style="fill:#000000;fill-opacity:1;stroke:none" />
        <path
           d="m 171.33333,105.83334 a 12.333333,12.833333 0 1 1 -24.66666,0 12.333333,12.833333 0 1 1 24.66666,0 z"
           transform="matrix(0.72972975,0,0,0.70129872,-53.02703,977.53369)"
           id="path3923"
           style="fill:#000000;fill-opacity:1;stroke:none" />
        <path
           d="m 171.33333,105.83334 a 12.333333,12.833333 0 1 1 -24.66666,0 12.333333,12.833333 0 1 1 24.66666,0 z"
           transform="matrix(0.7297297,0,0,0.70129872,-29.02703,977.53369)"
           id="path3925"
           style="fill:#000000;fill-opacity:1;stroke:none" />
        <path
           d="m 171.33333,105.83334 a 12.333333,12.833333 0 1 1 -24.66666,0 12.333333,12.833333 0 1 1 24.66666,0 z"
           transform="matrix(0.7297297,0,0,0.70129872,-5.0270302,977.53369)"
           id="path3927"
           style="fill:#000000;fill-opacity:1;stroke:none" />
        <path
           d="m 171.33333,105.83334 a 12.333333,12.833333 0 1 1 -24.66666,0 12.333333,12.833333 0 1 1 24.66666,0 z"
           transform="matrix(0.72972976,0,0,0.70129872,-89.02703,956.74909)"
           id="path3929"
           style="fill:#000000;fill-opacity:1;stroke:none" />
        <path
           d="m 171.33333,105.83334 a 12.333333,12.833333 0 1 1 -24.66666,0 12.333333,12.833333 0 1 1 24.66666,0 z"
           transform="matrix(0.72972976,0,0,0.70129872,-65.02703,956.74909)"
           id="path3931"
           style="fill:#000000;fill-opacity:1;stroke:none" />
        <path
           d="m 171.33333,105.83334 a 12.333333,12.833333 0 1 1 -24.66666,0 12.333333,12.833333 0 1 1 24.66666,0 z"
           transform="matrix(0.72972976,0,0,0.70129872,-41.02703,956.74909)"
           id="path3933"
           style="fill:#000000;fill-opacity:1;stroke:none" />
        <path
           d="m 171.33333,105.83334 a 12.333333,12.833333 0 1 1 -24.66666,0 12.333333,12.833333 0 1 1 24.66666,0 z"
           transform="matrix(0.72972972,0,0,0.70129872,-17.02703,956.74909)"
           id="path3935"
           style="fill:#000000;fill-opacity:1;stroke:none" />
        <path
           d="m 171.33333,105.83334 a 12.333333,12.833333 0 1 1 -24.66666,0 12.333333,12.833333 0 1 1 24.66666,0 z"
           transform="matrix(0.72972975,0,0,0.70129872,-77.02703,935.96448)"
           id="path3937"
           style="fill:#000000;fill-opacity:1;stroke:none" />
        <path
           d="m 171.33333,105.83334 a 12.333333,12.833333 0 1 1 -24.66666,0 12.333333,12.833333 0 1 1 24.66666,0 z"
           transform="matrix(0.72972975,0,0,0.70129872,-53.02703,935.96448)"
           id="path3939"
           style="fill:#000000;fill-opacity:1;stroke:none" />
        <path
           d="m 171.33333,105.83334 a 12.333333,12.833333 0 1 1 -24.66666,0 12.333333,12.833333 0 1 1 24.66666,0 z"
           transform="matrix(0.72972975,0,0,0.70129872,-29.02703,935.96448)"
           id="path3941"
           style="fill:#000000;fill-opacity:1;stroke:none" />
        <path
           d="m 171.33333,105.83334 a 12.333333,12.833333 0 1 1 -24.66666,0 12.333333,12.833333 0 1 1 24.66666,0 z"
           transform="matrix(0.72972976,0,0,0.70129872,-65.02703,915.17988)"
           id="path3943"
           style="fill:#000000;fill-opacity:1;stroke:none" />
        <path
           d="m 171.33333,105.83334 a 12.333333,12.833333 0 1 1 -24.66666,0 12.333333,12.833333 0 1 1 24.66666,0 z"
           transform="matrix(0.72972976,0,0,0.70129872,-41.02703,915.17988)"
           id="path3945"
           style="fill:#000000;fill-opacity:1;stroke:none" />
        <path
           d="m 171.33333,105.83334 a 12.333333,12.833333 0 1 1 -24.66666,0 12.333333,12.833333 0 1 1 24.66666,0 z"
           transform="matrix(0.72972975,0,0,0.70129872,-53.02703,894.39526)"
           id="path3947"
           style="fill:#000000;fill-opacity:1;stroke:none" />
      </g>
      <g
         transform="matrix(1.25,0,0,-1.25,28.33815,1082.9159)"
         id="g4417">
        <g
           transform="scale(0.1,0.1)"
           id="g4419">
          <g
             id="g4421">
            <g
               clip-path="url(#clipPath4425)"
               id="g4423">
              <path
                 d="m 78.3398,147.531 c 1.2696,5.02 1.9688,6.078 4.129,6.629 1.6093,0.36 7.5,0.36 11.2695,0.36 18.0507,0 26.0897,-0.719 26.0897,-14.668 0,-2.672 -0.699,-9.661 -1.418,-14.301 -0.191,-0.723 -0.551,-2.86 -0.551,-3.41 0,-1.063 0.551,-2.313 2.161,-2.313 1.968,0 2.332,1.422 2.671,4.113 l 4.829,31.11 c 0.191,0.719 0.359,2.5 0.359,3.027 0,1.973 -1.777,1.973 -4.828,1.973 l -99.2307,0 c -4.3008,0 -4.4687,-0.172 -5.7187,-3.582 L 7.37109,125 c -0.17187,-0.34 -1.0625,-2.859 -1.0625,-3.219 0,-1.062 0.89063,-1.953 2.14063,-1.953 1.78128,0 1.97268,0.891 3.05078,3.75 9.6406,27.723 14.3008,30.942 40.7695,30.942 l 6.9688,0 c 5,0 5,-0.719 5,-2.161 0,-1.058 -0.5274,-3.218 -0.6992,-3.75 L 39.5703,53.1289 c -1.6094,-6.6094 -2.1406,-8.5781 -21.2812,-8.5781 -6.4375,0 -7.5,0 -7.5,-3.4102 C 10.7891,39 12.7617,39 13.8203,39 c 4.8281,0 9.8399,0.3594 14.668,0.3594 5,0 10.1914,0.1718 15.1914,0.1718 5.0195,0 10.0195,-0.1718 14.8398,-0.1718 5.1914,0 10.5508,-0.3594 15.5586,-0.3594 1.7813,0 3.9414,0 3.9414,3.5781 0,1.9727 -1.4414,1.9727 -6.0898,1.9727 -4.4688,0 -6.7813,0 -11.4414,0.3594 -5.1875,0.5312 -6.6094,1.0586 -6.6094,3.9179 0,0.1914 0,1.0821 0.6992,3.7735 l 23.7813,94.9374"
                 id="path4429"
                 style="fill:#000000;fill-opacity:1;fill-rule:nonzero;stroke:none" />
              <path
                 d="m 126.422,81.9219 c 6.387,-1.6211 10.156,-1.6211 12.156,-1.6211 16.551,0 26.313,11.2773 26.313,13.1601 0,1.3789 -0.871,1.75 -1.5,1.75 -0.25,0 -0.5,0 -1,-0.3711 -3.02,-1.121 -9.661,-3.621 -18.922,-3.621 -3.52,0 -10.16,0.25 -18.297,3.3828 -1.25,0.6289 -1.5,0.6289 -1.621,0.6289 -1.641,0 -1.641,-1.3711 -1.641,-3.3711 l 0,-36.9688 c 0,-2.1211 0,-3.6406 2.02,-3.6406 1.129,0 1.25,0.25 2.5,1.7695 5.39,6.8907 13.031,7.8907 17.422,7.8907 7.519,0 10.91,-6.0196 11.527,-7.0196 2.25,-4.1406 3,-8.9101 3,-16.1718 0,-3.75 0,-11.1602 -3.75,-16.668 -3.141,-4.5 -8.527,-7.5196 -14.668,-7.5196 -8.141,0 -16.531,4.5196 -19.672,12.7774 4.77,-0.3672 7.141,2.7695 7.141,6.1406 0,5.3906 -4.621,6.3906 -6.27,6.3906 -0.25,0 -6.269,0 -6.269,-6.7695 0,-11.2812 10.281,-22.55077 25.308,-22.55077 16.051,0 30.082,11.91017 30.082,27.69137 0,14.1602 -10.769,27.1875 -26.312,27.1875 -5.52,0 -12.028,-1.3672 -17.547,-6.1367 l 0,23.6875"
                 id="path4431"
                 style="fill:#000000;fill-opacity:1;fill-rule:nonzero;stroke:none" />
              <path
                 d="m 359.84,97.4688 c 2.672,0 6.082,0 6.082,3.5822 0,3.578 -3.41,3.578 -5.91,3.578 l -107.114,0 c -2.5,0 -5.886,0 -5.886,-3.578 0,-3.5822 3.386,-3.5822 6.078,-3.5822 l 106.75,0 z m 0.18,-34.6876 c 2.5,0 5.91,0 5.91,3.5782 0,3.582 -3.41,3.582 -6.078,3.582 l -106.75,0 c -2.692,0 -6.082,0 -6.082,-3.582 0,-3.5782 3.39,-3.5782 5.89,-3.5782 l 107.11,0"
                 id="path4433"
                 style="fill:#000000;fill-opacity:1;fill-rule:nonzero;stroke:none" />
              <path
                 d="m 479.559,153.441 c 0,4.297 0,4.637 -4.11,4.637 -11.078,-11.437 -26.808,-11.437 -32.551,-11.437 l 0,-5.551 c 3.582,0 14.141,0 23.442,4.66 l 0,-92.6211 c 0,-6.4375 -0.551,-8.5781 -16.641,-8.5781 l -5.719,0 0,-5.5508 c 6.27,0.5312 21.809,0.5312 28.969,0.5312 7.16,0 22.699,0 28.973,-0.5312 l 0,5.5508 -5.723,0 c -16.09,0 -16.64,1.9687 -16.64,8.5781 l 0,100.3121"
                 id="path4435"
                 style="fill:#000000;fill-opacity:1;fill-rule:nonzero;stroke:none" />
              <path
                 d="m 596.281,74.9414 c 0,21.2774 -14.66,39.1606 -33.972,39.1606 -8.579,0 -16.27,-2.864 -22.7,-9.114 l 0,34.864 c 3.563,-1.063 9.469,-2.332 15.192,-2.332 22,0 34.519,16.281 34.519,18.609 0,1.062 -0.531,1.949 -1.8,1.949 -0.168,0 -0.532,0 -1.418,-0.527 -3.582,-1.61 -12.34,-5.192 -24.313,-5.192 -7.16,0 -15.391,1.25 -23.777,5.02 -1.442,0.531 -1.801,0.531 -2.16,0.531 -1.782,0 -1.782,-1.441 -1.782,-4.301 l 0,-52.918 c 0,-3.2222 0,-4.6402 2.5,-4.6402 1.25,0 1.61,0.5273 2.328,1.6094 1.973,2.8598 8.582,12.5198 23.063,12.5198 9.301,0 13.769,-8.231 15.199,-11.4495 2.86,-6.6094 3.219,-13.5899 3.219,-22.5313 0,-6.25 0,-16.9804 -4.301,-24.5 -4.297,-6.9687 -10.906,-11.6094 -19.117,-11.6094 -13.063,0 -23.25,9.4688 -26.301,20.0196 0.551,-0.168 1.078,-0.3594 3.051,-0.3594 5.91,0 8.937,4.4805 8.937,8.7695 0,4.3008 -3.027,8.7696 -8.937,8.7696 -2.5,0 -8.77,-1.25 -8.77,-9.4805 0,-15.3672 12.34,-32.7188 32.36,-32.7188 20.75,0 38.98,17.1719 38.98,39.879"
                 id="path4437"
                 style="fill:#000000;fill-opacity:1;fill-rule:nonzero;stroke:none" />
            </g>
          </g>
        </g>
      </g>
      <g
         transform="matrix(1.25,0,0,-1.25,184.67309,1082.9159)"
         id="g4477">
        <g
           transform="scale(0.1,0.1)"
           id="g4479">
          <g
             id="g4481">
            <g
               clip-path="url(#clipPath4485)"
               id="g4483">
              <path
                 d="m 78.3398,147.531 c 1.2696,5.02 1.9688,6.078 4.129,6.629 1.6093,0.36 7.5,0.36 11.2695,0.36 18.0507,0 26.0897,-0.719 26.0897,-14.668 0,-2.672 -0.699,-9.661 -1.418,-14.301 -0.191,-0.723 -0.551,-2.86 -0.551,-3.41 0,-1.063 0.551,-2.313 2.161,-2.313 1.968,0 2.332,1.422 2.671,4.113 l 4.829,31.11 c 0.191,0.719 0.359,2.5 0.359,3.027 0,1.973 -1.777,1.973 -4.828,1.973 l -99.2307,0 c -4.3008,0 -4.4687,-0.172 -5.7187,-3.582 L 7.37109,125 c -0.17187,-0.34 -1.0625,-2.859 -1.0625,-3.219 0,-1.062 0.89063,-1.953 2.14063,-1.953 1.78128,0 1.97268,0.891 3.05078,3.75 9.6406,27.723 14.3008,30.942 40.7695,30.942 l 6.9688,0 c 5,0 5,-0.719 5,-2.161 0,-1.058 -0.5274,-3.218 -0.6992,-3.75 L 39.5703,53.1289 c -1.6094,-6.6094 -2.1406,-8.5781 -21.2812,-8.5781 -6.4375,0 -7.5,0 -7.5,-3.4102 C 10.7891,39 12.7617,39 13.8203,39 c 4.8281,0 9.8399,0.3594 14.668,0.3594 5,0 10.1914,0.1718 15.1914,0.1718 5.0195,0 10.0195,-0.1718 14.8398,-0.1718 5.1914,0 10.5508,-0.3594 15.5586,-0.3594 1.7813,0 3.9414,0 3.9414,3.5781 0,1.9727 -1.4414,1.9727 -6.0898,1.9727 -4.4688,0 -6.7813,0 -11.4414,0.3594 -5.1875,0.5312 -6.6094,1.0586 -6.6094,3.9179 0,0.1914 0,1.0821 0.6992,3.7735 l 23.7813,94.9374"
                 id="path4489"
                 style="fill:#000000;fill-opacity:1;fill-rule:nonzero;stroke:none" />
              <path
                 d="m 125.801,52.9805 c 0,10.2695 0.879,19.5507 5.64,27.1914 4.27,6.7695 11.028,11.4062 19.047,11.4062 3.774,0 8.774,-1 11.282,-4.3867 -3.141,-0.25 -5.77,-2.3711 -5.77,-6.0195 0,-3.1211 2.129,-5.8907 5.891,-5.8907 3.769,0 6.019,2.5196 6.019,6.1407 0,7.2695 -5.269,13.7773 -17.672,13.7773 -18.047,0 -36.468,-16.5273 -36.468,-43.4804 0,-32.4493 15.3,-42.2188 29.082,-42.2188 15.277,0 28.558,11.6406 28.558,28.0586 0,15.9219 -12.66,27.7031 -27.308,27.7031 -10.032,0 -15.551,-6.6406 -18.301,-12.2812 z M 142.84,13.5 c -6.27,0 -11.16,3.6406 -13.781,9.1602 -1.887,3.75 -2.887,10.0195 -2.887,17.5507 0,12.1602 7.269,21.5508 17.297,21.5508 5.769,0 9.64,-2.25 12.781,-6.8906 3,-4.7695 3.129,-10.0313 3.129,-17.3008 0,-7.1406 0,-12.4101 -3.367,-17.3008 C 152.988,15.8984 148.988,13.5 142.852,13.5"
                 id="path4491"
                 style="fill:#000000;fill-opacity:1;fill-rule:nonzero;stroke:none" />
              <path
                 d="m 359.84,97.4688 c 2.672,0 6.082,0 6.082,3.5822 0,3.578 -3.41,3.578 -5.91,3.578 l -107.114,0 c -2.5,0 -5.886,0 -5.886,-3.578 0,-3.5822 3.386,-3.5822 6.078,-3.5822 l 106.75,0 z m 0.18,-34.6876 c 2.5,0 5.91,0 5.91,3.5782 0,3.582 -3.41,3.582 -6.078,3.582 l -106.75,0 c -2.692,0 -6.082,0 -6.082,-3.582 0,-3.5782 3.39,-3.5782 5.89,-3.5782 l 107.11,0"
                 id="path4493"
                 style="fill:#000000;fill-opacity:1;fill-rule:nonzero;stroke:none" />
              <path
                 d="m 449.699,52.7695 18.949,18.4219 c 27.911,24.668 38.633,34.3286 38.633,52.1996 0,20.39 -16.09,34.687 -37.91,34.687 -20.199,0 -33.441,-16.437 -33.441,-32.359 0,-10.02 8.941,-10.02 9.48,-10.02 3.031,0 9.301,2.16 9.301,9.481 0,4.64 -3.223,9.3 -9.481,9.3 -1.421,0 -1.781,0 -2.332,-0.191 4.133,11.633 13.782,18.25 24.141,18.25 16.281,0 23.973,-14.48 23.973,-29.16 0,-14.301 -8.942,-28.4181 -18.782,-39.5196 L 437.898,45.5898 c -1.968,-1.9492 -1.968,-2.3086 -1.968,-6.6093 l 66.34,0 5,31.1093 -4.469,0 c -0.891,-5.3593 -2.141,-13.2304 -3.942,-15.9101 -1.25,-1.4414 -13.05,-1.4414 -16.98,-1.4414 l -32.188,0"
                 id="path4495"
                 style="fill:#000000;fill-opacity:1;fill-rule:nonzero;stroke:none" />
              <path
                 d="m 568.559,153.441 c 0,4.297 0,4.637 -4.11,4.637 -11.078,-11.437 -26.808,-11.437 -32.551,-11.437 l 0,-5.551 c 3.582,0 14.141,0 23.442,4.66 l 0,-92.6211 c 0,-6.4375 -0.551,-8.5781 -16.641,-8.5781 l -5.719,0 0,-5.5508 c 6.27,0.5312 21.809,0.5312 28.969,0.5312 7.16,0 22.699,0 28.973,-0.5312 l 0,5.5508 -5.723,0 c -16.09,0 -16.64,1.9687 -16.64,8.5781 l 0,100.3121"
                 id="path4497"
                 style="fill:#000000;fill-opacity:1;fill-rule:nonzero;stroke:none" />
            </g>
          </g>
        </g>
      </g>
    </g>
  </g>
</svg>
